<svg width="40" height="40" viewBox="0 0 40 40" fill="none" xmlns="http://www.w3.org/2000/svg">
<path d="M29.2682 25.7851C29.5512 26.9568 29.7398 28.444 29.8342 29.4355C29.8813 29.751 29.7398 30.0664 29.4568 30.2917C29.1738 30.5171 28.8437 30.5621 28.5135 30.472L21.0137 28.5342C20.4477 30.7875 18.2779 32.5 15.7308 32.5C13.1837 32.5 10.9668 30.7875 10.448 28.399C10.3065 27.8582 10.6838 27.3624 11.2498 27.2272C11.8159 27.092 12.3347 27.4526 12.4762 27.9934C12.8064 29.4805 14.2215 30.5621 15.778 30.5621C17.6647 30.5621 19.1741 29.12 19.1741 27.3174C19.1741 27.0019 19.3156 26.7315 19.5515 26.5512C19.7873 26.371 20.1175 26.3259 20.4477 26.371L27.6173 28.2187C27.4286 26.9118 27.1928 25.695 27.0513 25.3795C26.8154 25.064 26.8154 24.6584 27.0041 24.343C27.1928 24.0275 27.6173 23.8473 27.9946 23.8923C28.1361 23.8923 28.2776 23.9374 28.372 23.9374C30.2587 23.9374 31.7681 22.4953 31.7681 20.6926C31.7681 18.8899 30.2587 17.4478 28.372 17.4478C28.2305 17.4478 28.0418 17.4478 27.8531 17.4929C27.8059 17.4929 27.7588 17.4929 27.6644 17.4929L24.457 19.611C24.2683 19.7462 24.0796 19.7913 23.891 19.7913C23.5608 19.7913 23.2306 19.6561 23.0419 19.3857C22.7118 18.935 22.8533 18.3491 23.3249 18.0337L27.0513 15.6001C27.0984 15.555 27.1456 15.555 27.2399 15.51C27.5229 15.0142 27.6644 14.4734 27.6644 13.9326C27.6644 12.13 26.1551 10.6879 24.2683 10.6879C22.3816 10.6879 20.8722 12.13 20.8722 13.9326V13.9777C20.8722 14.3833 20.8722 18.3942 20.8722 20.7827C20.8722 21.7291 20.8722 22.4953 20.8722 22.8558C20.8722 23.3966 20.4005 23.8472 19.8345 23.8472C19.2685 23.8472 18.7968 23.3966 18.7968 22.8558C18.7968 22.4502 18.7968 21.6841 18.7968 20.7827C18.7968 17.4478 18.7968 14.4284 18.7968 13.9326C18.7968 11.0935 21.2495 8.75 24.2211 8.75C27.1928 8.75 29.6455 11.0935 29.6455 13.9326C29.6455 14.5185 29.5512 15.1044 29.3153 15.6452C31.8153 16.0958 33.7492 18.2139 33.7492 20.7377C33.7963 23.2614 31.8624 25.4246 29.2682 25.7851ZM10.8253 25.6499C11.297 25.6499 11.7215 25.3344 11.8159 24.8387C11.9102 24.2979 11.58 23.8022 11.014 23.712C9.41028 23.4416 8.27824 22.0897 8.27824 20.5123C8.27824 18.7097 9.78763 17.2676 11.6744 17.2676C11.7215 17.2676 11.7687 17.2676 11.8159 17.2676L15.3063 19.5659C15.495 19.7011 15.6837 19.7462 15.8723 19.7462C16.2025 19.7462 16.5327 19.611 16.7214 19.3406C17.0516 18.8899 16.9101 18.3041 16.4384 17.9886L12.9007 15.6452C12.5706 15.1044 12.3819 14.5185 12.3819 13.8876C12.3819 12.0849 13.8913 10.6428 15.778 10.6428C16.1082 10.6428 16.3912 10.6879 16.6742 10.778C16.7685 10.8231 16.8629 10.8231 16.9572 10.8681C17.4761 11.0484 18.0893 10.8231 18.2779 10.3273C18.4666 9.83159 18.2308 9.24573 17.7119 9.06547C17.5704 9.0204 17.3817 8.97533 17.2402 8.93027C16.7685 8.79507 16.2969 8.75 15.778 8.75C12.8064 8.75 10.3536 11.0935 10.3536 13.9326C10.3536 14.4734 10.448 14.9692 10.5895 15.4649C8.08956 15.9606 6.25 18.0337 6.25 20.5574C6.25 23.0361 8.08956 25.1992 10.6367 25.6499C10.731 25.6499 10.7782 25.6499 10.8253 25.6499Z" fill="url(#paint0_linear_1_172)"/>
<defs>
<linearGradient id="paint0_linear_1_172" x1="18.2812" y1="1.88932" x2="18.1302" y2="38.7578" gradientUnits="userSpaceOnUse">
<stop offset="0.302189" stop-color="#220070"/>
<stop offset="0.874656" stop-color="#6E6CC8"/>
</linearGradient>
</defs>
</svg>
