<svg width="32" height="32" viewBox="0 0 32 32" fill="none" xmlns="http://www.w3.org/2000/svg">
<rect x="0.5" y="0.5" width="31" height="31" rx="15.5" fill="#FDFDFD"/>
<path d="M16.9119 16.0001L21.7806 11.1085C22.0413 10.8478 22.0413 10.4342 21.7806 10.1955C21.5199 9.93482 21.1064 9.93482 20.8678 10.1955L15.9991 15.0872L11.1083 10.1955C10.8476 9.93482 10.4341 9.93482 10.1955 10.1955C9.93483 10.4562 9.93483 10.8698 10.1955 11.1085L15.0642 16.0001L10.1955 20.8917C9.93483 21.1525 9.93483 21.566 10.1955 21.8047C10.3263 21.9355 10.4995 22 10.6523 22C10.8043 22 10.9784 21.9346 11.1092 21.8047L16 16.913L20.8908 21.8047C21.0216 21.9355 21.1948 22 21.3477 22C21.4997 22 21.6737 21.9346 21.8045 21.8047C22.0652 21.544 22.0652 21.1304 21.8045 20.8917L16.9119 16.0001Z" fill="black"/>
<rect x="0.5" y="0.5" width="31" height="31" rx="15.5" stroke="#FDFDFD"/>
</svg>
