<svg width="27" height="25" viewBox="0 0 27 25" fill="none" xmlns="http://www.w3.org/2000/svg">
<path d="M26.6844 0.830607L24.1067 0.840698C23.3979 0.843473 22.8186 1.44574 22.8195 2.17907L22.8339 14.179C22.8348 14.9123 23.4155 15.51 24.1244 15.5072L26.702 15.4971L26.6844 0.830607ZM1.13825 10.4239C0.996883 10.7578 0.919987 11.1181 0.920436 11.4914L0.922171 12.9314C0.923938 14.3981 2.08533 15.5935 3.50305 15.588L10.5916 15.5602L9.41337 21.7648C9.34929 22.0584 9.38834 22.3782 9.51754 22.6444C9.8147 23.2432 10.1891 23.7884 10.6537 24.2666L11.2473 24.8909L19.4984 16.312C19.9876 15.8034 20.2574 15.1224 20.2565 14.4157L20.244 3.97581C20.2419 2.25582 18.8869 0.861133 17.2243 0.867642L6.78479 0.908511C5.86972 0.912093 5.03258 1.4087 4.56956 2.21051L1.13825 10.4239Z" fill="white"/>
</svg>
