<svg width="32" height="32" viewBox="0 0 32 32" fill="none" xmlns="http://www.w3.org/2000/svg">
<rect width="32" height="32" rx="16" fill="#F2F2F2"/>
<g clip-path="url(#clip0_34_254)">
<path d="M9.2483 10.3198L11.9778 16.0848L9.54667 21.9831C9.43334 22.2244 9.50022 22.4914 9.69919 22.6805C9.88262 22.8548 10.1527 22.9079 10.4035 22.7971L24.446 16.3487C24.6671 16.2381 24.8251 16.0108 24.804 15.7578C24.7979 15.5189 24.6427 15.2839 24.4163 15.1859L10.0624 9.46395C9.80627 9.36499 9.53922 9.43188 9.36495 9.61531C9.17591 9.81427 9.13831 10.0991 9.24829 10.3196L9.2483 10.3198ZM22.5675 15.8145L11.3418 20.9817L13.0419 16.8639L16.323 16.7799L16.291 15.5274L13.1588 15.5776L11.0922 11.2279L22.5675 15.8145Z" fill="black"/>
</g>
<defs>
<clipPath id="clip0_34_254">
<rect width="24" height="24" fill="white" transform="translate(4 4)"/>
</clipPath>
</defs>
</svg>
