<svg width="25" height="25" viewBox="0 0 25 25" fill="none" xmlns="http://www.w3.org/2000/svg">
<path fill-rule="evenodd" clip-rule="evenodd" d="M-0.000244136 15.9927C-0.000244136 15.5385 0.143462 15.1028 0.39926 14.7816C0.655059 14.4604 1.002 14.28 1.36375 14.28L17.7317 14.28C18.8169 14.28 19.8578 13.7386 20.6252 12.775C21.3925 11.8114 21.8237 10.5045 21.8237 9.14179L21.8237 2.29086C21.8237 1.83661 21.9674 1.40097 22.2232 1.07977C22.479 0.758573 22.8259 0.578125 23.1877 0.578125C23.5494 0.578125 23.8964 0.758573 24.1521 1.07977C24.4079 1.40097 24.5517 1.83661 24.5517 2.29086L24.5517 9.14179C24.5517 11.413 23.8331 13.5912 22.5541 15.1972C21.2751 16.8032 19.5404 17.7055 17.7317 17.7055L1.36375 17.7055C1.002 17.7055 0.655059 17.525 0.39926 17.2038C0.143462 16.8826 -0.000244136 16.447 -0.000244136 15.9927Z" fill="#0C041B"/>
<path fill-rule="evenodd" clip-rule="evenodd" d="M0.399115 17.2041C0.143405 16.8829 -0.000244138 16.4473 -0.000244138 15.9932C-0.000244138 15.539 0.143405 15.1035 0.399115 14.7823L5.85509 7.93135C6.11234 7.61936 6.45689 7.44672 6.81453 7.45063C7.17216 7.45453 7.51427 7.63465 7.76716 7.95221C8.02006 8.26976 8.16351 8.69934 8.16662 9.14841C8.16972 9.59748 8.03224 10.0301 7.78378 10.3531L3.29215 15.9932L7.78378 21.6332C7.91405 21.7912 8.01797 21.9802 8.08945 22.1892C8.16094 22.3981 8.19857 22.6229 8.20014 22.8503C8.20171 23.0777 8.1672 23.3032 8.09862 23.5137C8.03004 23.7242 7.92875 23.9154 7.80069 24.0762C7.67262 24.2371 7.52032 24.3642 7.35269 24.4503C7.18506 24.5365 7.00546 24.5798 6.82435 24.5778C6.64323 24.5758 6.46425 24.5286 6.29784 24.4388C6.13143 24.3491 5.98092 24.2186 5.85509 24.055L0.399115 17.2041Z" fill="#0C041B"/>
</svg>
