<svg width="32" height="33" viewBox="0 0 32 33" fill="none" xmlns="http://www.w3.org/2000/svg">
<path d="M23.2531 9.31353C21.1497 7.14844 18.171 5.90677 14.8978 6.26625C10.1684 6.7781 6.28089 10.7666 5.75837 15.662C5.0573 22.1314 9.89699 27.5657 15.9932 27.5419C20.1045 27.5258 23.6329 25.0186 25.2783 21.4256C25.6897 20.5306 25.0698 19.5064 24.1161 19.5101C23.6392 19.512 23.1884 19.7804 22.9827 20.2212C21.5303 23.4669 18.04 25.5339 14.224 24.6688C11.362 24.0267 9.05208 21.6224 8.44277 18.6648C7.35392 13.4958 11.1504 8.89424 15.9707 8.87537C18.1101 8.867 20.0187 9.77952 21.4124 11.2274L19.4687 13.2483C18.6578 14.0915 19.2266 15.5293 20.3736 15.5248L25.0005 15.5067C25.7094 15.5039 26.2887 14.9016 26.2878 14.1683L26.282 9.38167C26.2806 8.19501 24.8879 7.60047 24.077 8.44364L23.2531 9.31353Z" fill="white"/>
</svg>
