<svg width="32" height="33" viewBox="0 0 32 33" fill="none" xmlns="http://www.w3.org/2000/svg">
<path d="M21.4135 1.68693L5.94754 1.74748C4.52982 1.75303 3.37132 2.95756 3.37309 4.42421L3.39557 23.0907L5.97324 23.0806L5.95075 4.41412L21.4167 4.35357L21.4135 1.68693ZM20.1311 7.02526L27.8738 14.9949L27.8898 28.3281C27.8916 29.7948 26.7331 30.9993 25.3154 31.0049L11.1253 31.0604C9.7076 31.066 8.5591 29.8705 8.55733 28.4038L8.54773 9.73727C8.54596 8.27061 9.69158 7.06613 11.1093 7.06058L20.1311 7.02526ZM18.8535 16.3636L25.9421 16.3358L18.8447 9.03029L18.8535 16.3636Z" fill="white"/>
</svg>
