<svg width="30" height="27" viewBox="0 0 30 27" fill="none" xmlns="http://www.w3.org/2000/svg">
<path d="M15.8712 1.44226L8.74001 8.85682C8.26374 9.35202 7.9939 10.0331 7.99475 10.7397L8.0108 24.0596C8.01257 25.5263 9.17396 26.7217 10.5917 26.7162L22.1912 26.6708C23.2222 26.6667 24.1494 26.0231 24.5607 25.0482L28.7501 14.8851C29.8295 12.2409 27.9572 9.31492 25.1862 9.32577L17.9043 9.35427L19.1213 3.24287C19.2494 2.5757 19.0552 1.89646 18.5907 1.41828C17.8293 0.647934 16.6178 0.652677 15.8712 1.44226ZM2.85868 26.7464C4.2764 26.7409 5.4349 25.5364 5.43313 24.0697L5.42028 13.4031C5.41852 11.9365 4.25712 10.741 2.8394 10.7466C1.42169 10.7521 0.263184 11.9567 0.264951 13.4233L0.277801 24.0899C0.279568 25.5565 1.44096 26.752 2.85868 26.7464Z" fill="white"/>
</svg>
