<svg width="49" height="48" viewBox="0 0 49 48" fill="none" xmlns="http://www.w3.org/2000/svg">
<path d="M36.7226 47.7833L11.3109 47.7833C5.0548 47.7833 0.0167389 42.7689 0.0167389 36.5422L0.0167389 11.2496C0.0167389 5.02286 5.0548 0.00842285 11.3109 0.00842285L36.7226 0.00842285C42.9787 0.00842285 48.0167 5.02286 48.0167 11.2496L48.0167 36.5422C48.0167 42.7689 42.9233 47.7833 36.7226 47.7833Z" fill="url(#paint0_linear_43_2656)"/>
<path d="M14.1007 28.0083L14.1007 19.4243L15.2726 19.4243L15.2726 28.0083L14.1007 28.0083ZM21.882 22.2427L21.3312 23.0278C21.2179 22.9146 21.0167 22.8071 20.7277 22.7056C20.4425 22.604 20.1613 22.5532 19.8839 22.5532C19.2784 22.5532 18.798 22.7661 18.4425 23.1919C18.087 23.6138 17.9093 24.1938 17.9093 24.9321C17.9093 25.6665 18.0909 26.2271 18.4542 26.6138C18.8175 26.9966 19.3214 27.188 19.9659 27.188C20.4659 27.188 20.9698 26.9946 21.4777 26.6079L21.9171 27.5454C21.3195 27.9321 20.5792 28.1255 19.6964 28.1255C18.8409 28.1255 18.1339 27.8384 17.5753 27.2642C17.0167 26.6899 16.7374 25.9126 16.7374 24.9321C16.7374 23.9321 17.0265 23.1294 17.6046 22.5239C18.1866 21.9185 18.9816 21.6157 19.9894 21.6157C20.3136 21.6157 20.6652 21.6841 21.0441 21.8208C21.423 21.9575 21.7023 22.0981 21.882 22.2427ZM22.6788 24.856C22.6788 23.8872 22.9386 23.106 23.4581 22.5122C23.9816 21.9146 24.6691 21.6157 25.5206 21.6157C26.4191 21.6157 27.1163 21.9028 27.6124 22.4771C28.1085 23.0474 28.3566 23.8403 28.3566 24.856C28.3566 25.8677 28.1027 26.6665 27.5948 27.2524C27.087 27.8345 26.3956 28.1255 25.5206 28.1255C24.6261 28.1255 23.9288 27.8306 23.4288 27.2407C22.9288 26.6509 22.6788 25.856 22.6788 24.856ZM23.8507 24.856C23.8507 26.4302 24.4073 27.2173 25.5206 27.2173C26.0402 27.2173 26.4464 27.0063 26.7394 26.5845C27.0363 26.1626 27.1847 25.5864 27.1847 24.856C27.1847 23.3013 26.63 22.5239 25.5206 22.5239C25.0128 22.5239 24.6066 22.731 24.3019 23.145C24.0011 23.5591 23.8507 24.1294 23.8507 24.856ZM33.3956 28.0083L33.3956 24.3579C33.3956 23.6899 33.2941 23.2231 33.0909 22.9575C32.8917 22.688 32.5558 22.5532 32.0831 22.5532C31.8292 22.5532 31.5636 22.6294 31.2863 22.7817C31.0089 22.9341 30.796 23.1216 30.6476 23.3442L30.6476 28.0083L29.5343 28.0083L29.5343 21.7329L30.296 21.7329L30.6476 22.5415C31.0148 21.9243 31.6144 21.6157 32.4464 21.6157C33.8214 21.6157 34.5089 22.4517 34.5089 24.1235L34.5089 28.0083L33.3956 28.0083Z" fill="white"/>
<defs>
<linearGradient id="paint0_linear_43_2656" x1="52.1176" y1="42.0738" x2="22.9838" y2="23.0476" gradientUnits="userSpaceOnUse">
<stop stop-color="#7BD8C3"/>
<stop offset="1" stop-color="#6E6CC8"/>
</linearGradient>
</defs>
</svg>
