<svg width="6" height="18" viewBox="0 0 6 18" fill="none" xmlns="http://www.w3.org/2000/svg">
<path d="M3.23437 4.52826C4.64751 4.52836 5.80365 3.51941 5.80355 2.28614C5.80346 1.05288 4.64717 0.043755 3.23403 0.0436493C1.82088 0.0435436 0.66475 1.05249 0.664843 2.28576C0.664937 3.51903 1.82122 4.52815 3.23437 4.52826ZM3.23454 6.77056C1.82139 6.77045 0.665261 7.7794 0.665355 9.01267C0.665449 10.2459 1.82173 11.2551 3.23488 11.2552C4.64802 11.2553 5.80416 10.2463 5.80406 9.01305C5.80397 7.77979 4.64768 6.77066 3.23454 6.77056ZM3.23505 13.4975C1.82191 13.4974 0.665773 14.5063 0.665867 15.7396C0.66596 16.9728 1.82225 17.982 3.23539 17.9821C4.64854 17.9822 5.80467 16.9732 5.80458 15.74C5.80448 14.5067 4.6482 13.4976 3.23505 13.4975Z" fill="white"/>
</svg>
