<svg width="16" height="16" viewBox="0 0 16 16" fill="none" xmlns="http://www.w3.org/2000/svg">
<path d="M13.0009 2.24023H3.00086C2.08211 2.24023 1.33398 2.98836 1.33398 3.90711V10.0934C1.33398 11.0121 2.08211 11.7602 3.00086 11.7602H3.26774V13.0815C3.26774 13.339 3.41024 13.5702 3.63962 13.6859C3.73712 13.7352 3.84149 13.759 3.94587 13.759C4.08775 13.759 4.22837 13.7146 4.34774 13.6265L6.87766 11.7596H13.0013C13.9201 11.7596 14.6682 11.0115 14.6682 10.0927V3.90711C14.6682 2.98836 13.9201 2.24023 13.0013 2.24023H13.0009ZM14.0009 10.0934C14.0009 10.6446 13.5521 11.0934 13.0009 11.0934H6.76774C6.6965 11.0934 6.62712 11.1159 6.56962 11.159L3.93394 13.0822V11.4278C3.93394 11.244 3.78456 11.0947 3.60082 11.0947H3.00082C2.44957 11.0947 2.00082 10.6459 2.00082 10.0947V3.90714C2.00082 3.35589 2.44957 2.90714 3.00082 2.90714H13.0008C13.5521 2.90714 14.0008 3.35589 14.0008 3.90714L14.0009 10.0934Z" fill="#323232" stroke="#323232"/>
</svg>
