<svg width="24" height="24" viewBox="0 0 24 24" fill="none" xmlns="http://www.w3.org/2000/svg">
<path d="M12 4C11.2637 4 10.6662 4.5975 10.6662 5.33375V10.6675L5.33375 10.6662C4.5975 10.6662 4 11.2637 4 12C4 12.7363 4.5975 13.3338 5.33375 13.3338H10.6675V18.6675L10.6662 18.6662C10.6662 19.4025 11.2637 20 12 20C12.7363 20 13.3338 19.4025 13.3338 18.6662V13.3338H18.6675H18.6662C19.4025 13.3338 20 12.7363 20 12C20 11.2638 19.4025 10.6663 18.6662 10.6663H13.3338V5.33381C13.3338 4.98006 13.1925 4.64006 12.9425 4.39007C12.6925 4.14009 12.3537 4 12 4Z" fill="black"/>
</svg>
