<svg width="32" height="32" viewBox="0 0 32 32" fill="none" xmlns="http://www.w3.org/2000/svg">
<path d="M28.9013 19.106L26.8544 17.3958C26.9513 16.8156 27.0013 16.2231 27.0013 15.6307C27.0013 15.0382 26.9513 14.4458 26.8544 13.8656L28.9013 12.1554C29.0556 12.0262 29.1661 11.8542 29.2181 11.6622C29.27 11.4702 29.2608 11.2673 29.1919 11.0804L29.1638 11.001C28.6002 9.46197 27.7564 8.03524 26.6731 6.78977L26.6169 6.72564C26.4855 6.57463 26.3103 6.46608 26.1145 6.41429C25.9187 6.3625 25.7114 6.3699 25.52 6.43552L22.9794 7.31808C22.0419 6.56684 20.995 5.97439 19.8638 5.55906L19.3731 2.96328C19.3361 2.76797 19.2392 2.58828 19.0951 2.44809C18.9511 2.3079 18.7669 2.21386 18.5669 2.17844L18.4825 2.16317C16.8544 1.87611 15.1419 1.87611 13.5138 2.16317L13.4294 2.17844C13.2294 2.21386 13.0451 2.3079 12.9011 2.44809C12.7571 2.58828 12.6601 2.76797 12.6231 2.96328L12.1294 5.57128C11.0072 5.98669 9.96208 6.57882 9.03563 7.32419L6.47625 6.43552C6.28489 6.36938 6.07747 6.36171 5.88155 6.41353C5.68562 6.46535 5.51048 6.57421 5.37938 6.72564L5.32313 6.78977C4.24108 8.03612 3.39743 9.46262 2.8325 11.001L2.80438 11.0804C2.66375 11.4622 2.77938 11.8897 3.095 12.1554L5.16688 13.8839C5.07 14.458 5.02313 15.0443 5.02313 15.6276C5.02313 16.214 5.07 16.8003 5.16688 17.3714L3.095 19.0999C2.94061 19.229 2.83012 19.4011 2.7782 19.5931C2.72629 19.7851 2.73542 19.988 2.80438 20.1748L2.8325 20.2542C3.39813 21.7934 4.23563 23.2134 5.32313 24.4655L5.37938 24.5296C5.5108 24.6806 5.68595 24.7892 5.88176 24.841C6.07757 24.8928 6.28483 24.8854 6.47625 24.8197L9.03563 23.9311C9.96688 24.6793 11.0075 25.2717 12.1294 25.684L12.6231 28.292C12.6601 28.4873 12.7571 28.667 12.9011 28.8072C13.0451 28.9474 13.2294 29.0414 13.4294 29.0768L13.5138 29.0921C15.1568 29.3807 16.8394 29.3807 18.4825 29.0921L18.5669 29.0768C18.7669 29.0414 18.9511 28.9474 19.0951 28.8072C19.2392 28.667 19.3361 28.4873 19.3731 28.292L19.8638 25.6962C20.9945 25.282 22.0473 24.6876 22.9794 23.9372L25.52 24.8197C25.7114 24.8859 25.9188 24.8936 26.1147 24.8417C26.3106 24.7899 26.4858 24.6811 26.6169 24.5296L26.6731 24.4655C27.7606 23.2104 28.5981 21.7934 29.1638 20.2542L29.1919 20.1748C29.3325 19.7992 29.2169 19.3717 28.9013 19.106V19.106ZM24.6356 14.2259C24.7138 14.687 24.7544 15.1604 24.7544 15.6337C24.7544 16.1071 24.7138 16.5804 24.6356 17.0416L24.4294 18.2662L26.7638 20.2176C26.4099 21.0143 25.9632 21.7685 25.4325 22.4652L22.5325 21.4605L21.5513 22.2484C20.8044 22.847 19.9731 23.3172 19.0731 23.6471L17.8825 24.0838L17.3231 27.046C16.4405 27.1437 15.5495 27.1437 14.6669 27.046L14.1075 24.0777L12.9263 23.6348C12.0356 23.305 11.2075 22.8347 10.4669 22.2392L9.48563 21.4483L6.56688 22.4622C6.03563 21.7628 5.59188 21.0085 5.23563 20.2145L7.595 18.2448L7.39188 17.0232C7.31688 16.5682 7.27625 16.0979 7.27625 15.6337C7.27625 15.1665 7.31375 14.6993 7.39188 14.2442L7.595 13.0227L5.23563 11.053C5.58875 10.2559 6.03563 9.50465 6.56688 8.80531L9.48563 9.81919L10.4669 9.02824C11.2075 8.43274 12.0356 7.96245 12.9263 7.63263L14.1106 7.19593L14.67 4.22758C15.5481 4.12986 16.445 4.12986 17.3263 4.22758L17.8856 7.18982L19.0763 7.62652C19.9731 7.95634 20.8075 8.42663 21.5544 9.02519L22.5356 9.81309L25.4356 8.80837C25.9669 9.5077 26.4106 10.262 26.7669 11.056L24.4325 13.0074L24.6356 14.2259ZM16.0013 9.95356C12.9638 9.95356 10.5013 12.36 10.5013 15.3284C10.5013 18.2967 12.9638 20.7031 16.0013 20.7031C19.0388 20.7031 21.5013 18.2967 21.5013 15.3284C21.5013 12.36 19.0388 9.95356 16.0013 9.95356ZM18.4763 17.747C18.1516 18.0651 17.7658 18.3174 17.3411 18.4893C16.9163 18.6612 16.461 18.7494 16.0013 18.7487C15.0669 18.7487 14.1888 18.3914 13.5263 17.747C13.2007 17.4298 12.9425 17.0528 12.7666 16.6377C12.5907 16.2226 12.5005 15.7776 12.5013 15.3284C12.5013 14.4152 12.8669 13.5571 13.5263 12.9097C14.1888 12.2623 15.0669 11.908 16.0013 11.908C16.9356 11.908 17.8138 12.2623 18.4763 12.9097C18.8018 13.2269 19.06 13.6039 19.2359 14.019C19.4118 14.4341 19.502 14.8791 19.5013 15.3284C19.5013 16.2415 19.1356 17.0996 18.4763 17.747Z" fill="white"/>
</svg>
