<svg width="49" height="49" viewBox="0 0 49 49" fill="none" xmlns="http://www.w3.org/2000/svg">
<path d="M40.1295 20.1855C40.0783 31.2311 31.0826 40.1438 20.037 40.0925C8.9914 40.0413 0.0787062 31.0456 0.129922 20C0.181138 8.95445 9.17687 0.0417627 20.2224 0.0929785C31.268 0.144194 40.1807 9.13992 40.1295 20.1855Z" fill="white"/>
<path d="M20.0184 44.0925C33.2732 44.154 44.068 33.4587 44.1294 20.204C44.1367 18.6461 43.9953 17.1222 43.7186 15.6456C46.4748 19.091 48.1144 23.4668 48.0923 28.2225C48.0411 39.2681 39.0454 48.1808 27.9998 48.1296C23.244 48.1075 18.8837 46.4274 15.464 43.6394C16.9379 43.9298 18.4605 44.0853 20.0184 44.0925Z" fill="white"/>
<path d="M13.4194 29.3951L18.4024 29.4182L18.4347 22.4587L26.011 22.4938L26.0278 18.8589L18.4515 18.8237L18.4713 14.5678L26.8215 14.6065L26.8392 10.7905L13.506 10.7286L13.4194 29.3951Z" fill="black"/>
</svg>
