<svg width="48" height="48" viewBox="0 0 48 48" fill="none" xmlns="http://www.w3.org/2000/svg">
<rect x="0.5" y="0.5" width="47" height="47" rx="23.5" fill="#FDFDFD"/>
<path d="M25 38C21.1402 38 18 34.86 18 31V15C18 12.2437 20.2437 10 23 10C25.7575 10 28 12.2437 28 15V29C28 30.6538 26.6538 32 25 32C23.3462 32 22 30.6538 22 29V17C22 16.4475 22.4475 16 23 16C23.5525 16 24 16.4475 24 17V29C24 29.55 24.45 30 25 30C25.55 30 26 29.55 26 29V15C26 13.3462 24.6538 12 23 12C21.3462 12 20 13.3462 20 15V31C20 33.7575 22.2437 36 25 36C27.7575 36 30 33.7575 30 31V17C30 16.4475 30.4475 16 31 16C31.5525 16 32 16.4475 32 17V31C32 34.8598 28.86 38 25 38Z" fill="black"/>
<rect x="0.5" y="0.5" width="47" height="47" rx="23.5" stroke="#FDFDFD"/>
</svg>
