<svg width="32" height="32" viewBox="0 0 32 32" fill="none" xmlns="http://www.w3.org/2000/svg">
<path d="M26.8275 23.3193C26.238 21.9548 25.3825 20.7153 24.3087 19.6699C23.2382 18.6216 21.9701 17.7857 20.5743 17.2085C20.5618 17.2024 20.5493 17.1994 20.5368 17.1933C22.4837 15.819 23.7493 13.5806 23.7493 11.055C23.7493 6.87123 20.2806 3.48145 15.9993 3.48145C11.7181 3.48145 8.24935 6.87123 8.24935 11.055C8.24935 13.5806 9.51497 15.819 11.4618 17.1963C11.4493 17.2024 11.4368 17.2055 11.4243 17.2116C10.0243 17.7888 8.7681 18.6164 7.68997 19.673C6.61719 20.7192 5.76186 21.9584 5.17122 23.3224C4.59098 24.6577 4.27804 26.0893 4.24935 27.5397C4.24851 27.5723 4.25436 27.6048 4.26655 27.6351C4.27874 27.6655 4.29702 27.6931 4.32032 27.7164C4.34362 27.7398 4.37146 27.7583 4.40221 27.771C4.43295 27.7836 4.46598 27.7902 4.49935 27.7902L6.37435 27.7902C6.51185 27.7902 6.62122 27.6833 6.62435 27.552C6.68685 25.1944 7.6556 22.9864 9.3681 21.3129C11.14 19.5814 13.4931 18.6286 15.9993 18.6286C18.5056 18.6286 20.8587 19.5814 22.6306 21.3129C24.3431 22.9864 25.3118 25.1944 25.3743 27.552C25.3775 27.6863 25.4868 27.7902 25.6243 27.7902L27.4993 27.7902C27.5327 27.7902 27.5657 27.7836 27.5965 27.771C27.6272 27.7583 27.6551 27.7398 27.6784 27.7164C27.7017 27.6931 27.72 27.6655 27.7321 27.6351C27.7443 27.6048 27.7502 27.5723 27.7493 27.5397C27.7181 26.08 27.4087 24.6599 26.8275 23.3193ZM15.9993 16.3076C14.565 16.3076 13.215 15.761 12.1993 14.7685C11.1837 13.776 10.6243 12.4567 10.6243 11.055C10.6243 9.65329 11.1837 8.33402 12.1993 7.34152C13.215 6.34902 14.565 5.80238 15.9993 5.80238C17.4337 5.80238 18.7837 6.34902 19.7993 7.34152C20.815 8.33402 21.3743 9.65329 21.3743 11.055C21.3743 12.4567 20.815 13.776 19.7993 14.7685C18.7837 15.761 17.4337 16.3076 15.9993 16.3076Z" fill="white"/>
</svg>
