<svg width="14" height="15" viewBox="0 0 14 15" fill="none" xmlns="http://www.w3.org/2000/svg">
<path d="M6.25012 7.5C6.25012 7.69891 6.32914 7.88968 6.46979 8.03033C6.61044 8.17098 6.80121 8.25 7.00012 8.25C7.19903 8.25 7.3898 8.17098 7.53045 8.03033C7.6711 7.88968 7.75012 7.69891 7.75012 7.5C7.75012 7.30109 7.6711 7.11032 7.53045 6.96967C7.3898 6.82902 7.19903 6.75 7.00012 6.75C6.80121 6.75 6.61044 6.82902 6.46979 6.96967C6.32914 7.11032 6.25012 7.30109 6.25012 7.5V7.5ZM9.37512 7.5C9.37512 7.69891 9.45414 7.88968 9.59479 8.03033C9.73544 8.17098 9.92621 8.25 10.1251 8.25C10.324 8.25 10.5148 8.17098 10.6554 8.03033C10.7961 7.88968 10.8751 7.69891 10.8751 7.5C10.8751 7.30109 10.7961 7.11032 10.6554 6.96967C10.5148 6.82902 10.324 6.75 10.1251 6.75C9.92621 6.75 9.73544 6.82902 9.59479 6.96967C9.45414 7.11032 9.37512 7.30109 9.37512 7.5ZM3.12512 7.5C3.12512 7.69891 3.20414 7.88968 3.34479 8.03033C3.48544 8.17098 3.67621 8.25 3.87512 8.25C4.07403 8.25 4.2648 8.17098 4.40545 8.03033C4.5461 7.88968 4.62512 7.69891 4.62512 7.5C4.62512 7.30109 4.5461 7.11032 4.40545 6.96967C4.2648 6.82902 4.07403 6.75 3.87512 6.75C3.67621 6.75 3.48544 6.82902 3.34479 6.96967C3.20414 7.11032 3.12512 7.30109 3.12512 7.5V7.5ZM13.4564 4.7875C13.1032 3.94844 12.597 3.19531 11.9517 2.54844C11.3109 1.90531 10.5502 1.3941 9.71262 1.04375C8.85324 0.682813 7.94074 0.5 7.00012 0.5L6.96887 0.5C6.02199 0.504687 5.10481 0.692188 4.24231 1.06094C3.41193 1.41488 2.65834 1.927 2.02356 2.56875C1.38449 3.21406 0.882932 3.96406 0.536057 4.8C0.176682 5.66563 -0.00456834 6.58594 0.000119164 7.53281C0.00542112 8.61792 0.262138 9.68704 0.750119 10.6562L0.750119 13.0312C0.750119 13.2219 0.825844 13.4047 0.960636 13.5395C1.09543 13.6743 1.27824 13.75 1.46887 13.75L3.84543 13.75C4.81464 14.238 5.88376 14.4947 6.96887 14.5L7.00168 14.5C7.93762 14.5 8.84543 14.3188 9.70012 13.9641C10.5334 13.6179 11.2913 13.1126 11.9314 12.4766C12.5767 11.8375 13.0845 11.0906 13.4392 10.2578C13.8079 9.39531 13.9954 8.47812 14.0001 7.53125C14.0048 6.57969 13.8204 5.65625 13.4564 4.7875V4.7875ZM11.0954 11.6313C10.0001 12.7156 8.54699 13.3125 7.00012 13.3125L6.97356 13.3125C6.03137 13.3078 5.09543 13.0734 4.26887 12.6328L4.13762 12.5625L1.93762 12.5625L1.93762 10.3625L1.86731 10.2312C1.42668 9.40469 1.19231 8.46875 1.18762 7.52656C1.18137 5.96875 1.77668 4.50625 2.86887 3.40469C3.95949 2.30312 5.41731 1.69375 6.97512 1.6875L7.00168 1.6875C7.78293 1.6875 8.54074 1.83906 9.25481 2.13906C9.95168 2.43125 10.5767 2.85156 11.1142 3.38906C11.6501 3.925 12.072 4.55156 12.3642 5.24844C12.6673 5.97031 12.8189 6.73594 12.8157 7.52656C12.8064 9.08281 12.1954 10.5406 11.0954 11.6313V11.6313Z" fill="white"/>
</svg>
