<svg width="40" height="40" viewBox="0 0 40 40" fill="none" xmlns="http://www.w3.org/2000/svg">
<rect x="0.5" y="0.5" width="39" height="39" rx="19.5" fill="white"/>
<path d="M20 9.43152C14.1726 9.43152 9.43164 14.1725 9.43164 19.9999C9.43164 25.8274 14.1726 30.5683 20 30.5683C25.8275 30.5683 30.5684 25.8274 30.5684 19.9999C30.5684 14.1725 25.8275 9.43152 20 9.43152ZM27.4062 13.1957C26.5775 13.6382 25.6053 13.9982 24.5404 14.2644C23.9188 12.3932 23.0029 10.9289 21.921 10.1235C24.0716 10.5407 25.9794 11.6431 27.4062 13.1957ZM20.252 15.3022C21.6311 15.2854 22.9746 15.1325 24.214 14.8588C24.6312 16.2932 24.8786 17.9572 24.9021 19.7346L20.2521 19.7356L20.252 15.3022ZM20.252 14.7969V9.95107C21.8374 10.117 23.2268 11.8336 24.0649 14.3762C22.8743 14.6349 21.5814 14.78 20.252 14.7969ZM19.7477 14.7969C18.4183 14.78 17.1264 14.6347 15.9348 14.375C16.7729 11.8334 18.1623 10.116 19.7477 9.95088V14.7969ZM19.7477 15.3022V19.7358H15.0977C15.1202 17.9583 15.3677 16.2942 15.7858 14.859C17.0242 15.1327 18.3677 15.2853 19.7477 15.3022ZM14.5925 19.7358H9.94342C10.0044 17.4032 10.8603 15.2648 12.2525 13.5858C13.1319 14.0686 14.1687 14.4604 15.3086 14.7473C14.8727 16.2229 14.6159 17.9226 14.5925 19.7358ZM14.5925 20.2411C14.6131 22.0626 14.8709 23.7708 15.3078 25.2549C14.1687 25.5418 13.1318 25.9327 12.2526 26.4165C10.8548 24.7318 9.9979 22.5839 9.94258 20.242L14.5925 20.2411ZM15.0978 20.2411H19.7478V24.6988C18.3687 24.7157 17.0252 24.8685 15.7859 25.1423C15.3659 23.7004 15.1184 22.0272 15.0978 20.2411ZM19.7478 25.2033V30.0501C18.1625 29.8842 16.773 28.1667 15.9349 25.625C17.1255 25.3653 18.4184 25.2202 19.7478 25.2033ZM20.2522 25.2033C21.5815 25.2202 22.8734 25.3646 24.065 25.6252C23.2269 28.1668 21.8376 29.8842 20.2522 30.0503V25.2033ZM20.2522 24.698V20.2412H24.9022C24.8815 22.0281 24.634 23.7006 24.214 25.1425C22.9756 24.8678 21.6322 24.7149 20.2522 24.698ZM25.4074 20.2412H30.0564C30.0011 22.5831 29.1442 24.7309 27.7464 26.4157C26.867 25.9329 25.8301 25.541 24.6912 25.2541C25.129 23.771 25.3858 22.0618 25.4074 20.2412ZM25.4074 19.7359C25.3839 17.9237 25.127 16.224 24.692 14.7465C25.8311 14.4596 26.868 14.0687 27.7472 13.585C29.1404 15.264 29.9954 17.4024 30.0563 19.735L25.4074 19.7359ZM18.079 10.1227C16.9971 10.928 16.0812 12.3924 15.4596 14.2636C14.3946 13.9974 13.4233 13.6383 12.5938 13.1949C14.0216 11.6433 15.9286 10.5408 18.079 10.1227ZM12.5938 26.8046C13.4225 26.3621 14.3947 26.0021 15.4596 25.7358C16.0812 27.6071 16.9971 29.0714 18.078 29.8768C15.9283 29.4596 14.0206 28.3571 12.5935 26.8046L12.5938 26.8046ZM21.9218 29.8768C23.0028 29.0715 23.9187 27.6072 24.5402 25.7359C25.6052 26.0021 26.5765 26.3612 27.4061 26.8037C25.9792 28.3571 24.0713 29.4595 21.9216 29.8769L21.9218 29.8768Z" fill="#6E6E73"/>
<path d="M20 9.43152C14.1726 9.43152 9.43164 14.1725 9.43164 19.9999C9.43164 25.8274 14.1726 30.5683 20 30.5683C25.8275 30.5683 30.5684 25.8274 30.5684 19.9999C30.5684 14.1725 25.8275 9.43152 20 9.43152ZM27.4062 13.1957C26.5775 13.6382 25.6053 13.9982 24.5404 14.2644C23.9188 12.3932 23.0029 10.9289 21.921 10.1235C24.0716 10.5407 25.9794 11.6431 27.4062 13.1957ZM20.252 15.3022C21.6311 15.2854 22.9746 15.1325 24.214 14.8588C24.6312 16.2932 24.8786 17.9572 24.9021 19.7346L20.2521 19.7356L20.252 15.3022ZM20.252 14.7969V9.95107C21.8374 10.117 23.2268 11.8336 24.0649 14.3762C22.8743 14.6349 21.5814 14.78 20.252 14.7969ZM19.7477 14.7969C18.4183 14.78 17.1264 14.6347 15.9348 14.375C16.7729 11.8334 18.1623 10.116 19.7477 9.95088V14.7969ZM19.7477 15.3022V19.7358H15.0977C15.1202 17.9583 15.3677 16.2942 15.7858 14.859C17.0242 15.1327 18.3677 15.2853 19.7477 15.3022ZM14.5925 19.7358H9.94342C10.0044 17.4032 10.8603 15.2648 12.2525 13.5858C13.1319 14.0686 14.1687 14.4604 15.3086 14.7473C14.8727 16.2229 14.6159 17.9226 14.5925 19.7358ZM14.5925 20.2411C14.6131 22.0626 14.8709 23.7708 15.3078 25.2549C14.1687 25.5418 13.1318 25.9327 12.2526 26.4165C10.8548 24.7318 9.9979 22.5839 9.94258 20.242L14.5925 20.2411ZM15.0978 20.2411H19.7478V24.6988C18.3687 24.7157 17.0252 24.8685 15.7859 25.1423C15.3659 23.7004 15.1184 22.0272 15.0978 20.2411ZM19.7478 25.2033V30.0501C18.1625 29.8842 16.773 28.1667 15.9349 25.625C17.1255 25.3653 18.4184 25.2202 19.7478 25.2033ZM20.2522 25.2033C21.5815 25.2202 22.8734 25.3646 24.065 25.6252C23.2269 28.1668 21.8376 29.8842 20.2522 30.0503V25.2033ZM20.2522 24.698V20.2412H24.9022C24.8815 22.0281 24.634 23.7006 24.214 25.1425C22.9756 24.8678 21.6322 24.7149 20.2522 24.698ZM25.4074 20.2412H30.0564C30.0011 22.5831 29.1442 24.7309 27.7464 26.4157C26.867 25.9329 25.8301 25.541 24.6912 25.2541C25.129 23.771 25.3858 22.0618 25.4074 20.2412ZM25.4074 19.7359C25.3839 17.9237 25.127 16.224 24.692 14.7465C25.8311 14.4596 26.868 14.0687 27.7472 13.585C29.1404 15.264 29.9954 17.4024 30.0563 19.735L25.4074 19.7359ZM18.079 10.1227C16.9971 10.928 16.0812 12.3924 15.4596 14.2636C14.3946 13.9974 13.4233 13.6383 12.5938 13.1949C14.0216 11.6433 15.9286 10.5408 18.079 10.1227ZM12.5938 26.8046C13.4225 26.3621 14.3947 26.0021 15.4596 25.7358C16.0812 27.6071 16.9971 29.0714 18.078 29.8768C15.9283 29.4596 14.0206 28.3571 12.5935 26.8046L12.5938 26.8046ZM21.9218 29.8768C23.0028 29.0715 23.9187 27.6072 24.5402 25.7359C25.6052 26.0021 26.5765 26.3612 27.4061 26.8037C25.9792 28.3571 24.0713 29.4595 21.9216 29.8769L21.9218 29.8768Z" fill="black" fill-opacity="0.2"/>
<path d="M20 9.43152C14.1726 9.43152 9.43164 14.1725 9.43164 19.9999C9.43164 25.8274 14.1726 30.5683 20 30.5683C25.8275 30.5683 30.5684 25.8274 30.5684 19.9999C30.5684 14.1725 25.8275 9.43152 20 9.43152ZM27.4062 13.1957C26.5775 13.6382 25.6053 13.9982 24.5404 14.2644C23.9188 12.3932 23.0029 10.9289 21.921 10.1235C24.0716 10.5407 25.9794 11.6431 27.4062 13.1957ZM20.252 15.3022C21.6311 15.2854 22.9746 15.1325 24.214 14.8588C24.6312 16.2932 24.8786 17.9572 24.9021 19.7346L20.2521 19.7356L20.252 15.3022ZM20.252 14.7969V9.95107C21.8374 10.117 23.2268 11.8336 24.0649 14.3762C22.8743 14.6349 21.5814 14.78 20.252 14.7969ZM19.7477 14.7969C18.4183 14.78 17.1264 14.6347 15.9348 14.375C16.7729 11.8334 18.1623 10.116 19.7477 9.95088V14.7969ZM19.7477 15.3022V19.7358H15.0977C15.1202 17.9583 15.3677 16.2942 15.7858 14.859C17.0242 15.1327 18.3677 15.2853 19.7477 15.3022ZM14.5925 19.7358H9.94342C10.0044 17.4032 10.8603 15.2648 12.2525 13.5858C13.1319 14.0686 14.1687 14.4604 15.3086 14.7473C14.8727 16.2229 14.6159 17.9226 14.5925 19.7358ZM14.5925 20.2411C14.6131 22.0626 14.8709 23.7708 15.3078 25.2549C14.1687 25.5418 13.1318 25.9327 12.2526 26.4165C10.8548 24.7318 9.9979 22.5839 9.94258 20.242L14.5925 20.2411ZM15.0978 20.2411H19.7478V24.6988C18.3687 24.7157 17.0252 24.8685 15.7859 25.1423C15.3659 23.7004 15.1184 22.0272 15.0978 20.2411ZM19.7478 25.2033V30.0501C18.1625 29.8842 16.773 28.1667 15.9349 25.625C17.1255 25.3653 18.4184 25.2202 19.7478 25.2033ZM20.2522 25.2033C21.5815 25.2202 22.8734 25.3646 24.065 25.6252C23.2269 28.1668 21.8376 29.8842 20.2522 30.0503V25.2033ZM20.2522 24.698V20.2412H24.9022C24.8815 22.0281 24.634 23.7006 24.214 25.1425C22.9756 24.8678 21.6322 24.7149 20.2522 24.698ZM25.4074 20.2412H30.0564C30.0011 22.5831 29.1442 24.7309 27.7464 26.4157C26.867 25.9329 25.8301 25.541 24.6912 25.2541C25.129 23.771 25.3858 22.0618 25.4074 20.2412ZM25.4074 19.7359C25.3839 17.9237 25.127 16.224 24.692 14.7465C25.8311 14.4596 26.868 14.0687 27.7472 13.585C29.1404 15.264 29.9954 17.4024 30.0563 19.735L25.4074 19.7359ZM18.079 10.1227C16.9971 10.928 16.0812 12.3924 15.4596 14.2636C14.3946 13.9974 13.4233 13.6383 12.5938 13.1949C14.0216 11.6433 15.9286 10.5408 18.079 10.1227ZM12.5938 26.8046C13.4225 26.3621 14.3947 26.0021 15.4596 25.7358C16.0812 27.6071 16.9971 29.0714 18.078 29.8768C15.9283 29.4596 14.0206 28.3571 12.5935 26.8046L12.5938 26.8046ZM21.9218 29.8768C23.0028 29.0715 23.9187 27.6072 24.5402 25.7359C25.6052 26.0021 26.5765 26.3612 27.4061 26.8037C25.9792 28.3571 24.0713 29.4595 21.9216 29.8769L21.9218 29.8768Z" fill="black" fill-opacity="0.2"/>
<path d="M20 9.43152C14.1726 9.43152 9.43164 14.1725 9.43164 19.9999C9.43164 25.8274 14.1726 30.5683 20 30.5683C25.8275 30.5683 30.5684 25.8274 30.5684 19.9999C30.5684 14.1725 25.8275 9.43152 20 9.43152ZM27.4062 13.1957C26.5775 13.6382 25.6053 13.9982 24.5404 14.2644C23.9188 12.3932 23.0029 10.9289 21.921 10.1235C24.0716 10.5407 25.9794 11.6431 27.4062 13.1957ZM20.252 15.3022C21.6311 15.2854 22.9746 15.1325 24.214 14.8588C24.6312 16.2932 24.8786 17.9572 24.9021 19.7346L20.2521 19.7356L20.252 15.3022ZM20.252 14.7969V9.95107C21.8374 10.117 23.2268 11.8336 24.0649 14.3762C22.8743 14.6349 21.5814 14.78 20.252 14.7969ZM19.7477 14.7969C18.4183 14.78 17.1264 14.6347 15.9348 14.375C16.7729 11.8334 18.1623 10.116 19.7477 9.95088V14.7969ZM19.7477 15.3022V19.7358H15.0977C15.1202 17.9583 15.3677 16.2942 15.7858 14.859C17.0242 15.1327 18.3677 15.2853 19.7477 15.3022ZM14.5925 19.7358H9.94342C10.0044 17.4032 10.8603 15.2648 12.2525 13.5858C13.1319 14.0686 14.1687 14.4604 15.3086 14.7473C14.8727 16.2229 14.6159 17.9226 14.5925 19.7358ZM14.5925 20.2411C14.6131 22.0626 14.8709 23.7708 15.3078 25.2549C14.1687 25.5418 13.1318 25.9327 12.2526 26.4165C10.8548 24.7318 9.9979 22.5839 9.94258 20.242L14.5925 20.2411ZM15.0978 20.2411H19.7478V24.6988C18.3687 24.7157 17.0252 24.8685 15.7859 25.1423C15.3659 23.7004 15.1184 22.0272 15.0978 20.2411ZM19.7478 25.2033V30.0501C18.1625 29.8842 16.773 28.1667 15.9349 25.625C17.1255 25.3653 18.4184 25.2202 19.7478 25.2033ZM20.2522 25.2033C21.5815 25.2202 22.8734 25.3646 24.065 25.6252C23.2269 28.1668 21.8376 29.8842 20.2522 30.0503V25.2033ZM20.2522 24.698V20.2412H24.9022C24.8815 22.0281 24.634 23.7006 24.214 25.1425C22.9756 24.8678 21.6322 24.7149 20.2522 24.698ZM25.4074 20.2412H30.0564C30.0011 22.5831 29.1442 24.7309 27.7464 26.4157C26.867 25.9329 25.8301 25.541 24.6912 25.2541C25.129 23.771 25.3858 22.0618 25.4074 20.2412ZM25.4074 19.7359C25.3839 17.9237 25.127 16.224 24.692 14.7465C25.8311 14.4596 26.868 14.0687 27.7472 13.585C29.1404 15.264 29.9954 17.4024 30.0563 19.735L25.4074 19.7359ZM18.079 10.1227C16.9971 10.928 16.0812 12.3924 15.4596 14.2636C14.3946 13.9974 13.4233 13.6383 12.5938 13.1949C14.0216 11.6433 15.9286 10.5408 18.079 10.1227ZM12.5938 26.8046C13.4225 26.3621 14.3947 26.0021 15.4596 25.7358C16.0812 27.6071 16.9971 29.0714 18.078 29.8768C15.9283 29.4596 14.0206 28.3571 12.5935 26.8046L12.5938 26.8046ZM21.9218 29.8768C23.0028 29.0715 23.9187 27.6072 24.5402 25.7359C25.6052 26.0021 26.5765 26.3612 27.4061 26.8037C25.9792 28.3571 24.0713 29.4595 21.9216 29.8769L21.9218 29.8768Z" fill="black" fill-opacity="0.2"/>
<path d="M20 9.43152C14.1726 9.43152 9.43164 14.1725 9.43164 19.9999C9.43164 25.8274 14.1726 30.5683 20 30.5683C25.8275 30.5683 30.5684 25.8274 30.5684 19.9999C30.5684 14.1725 25.8275 9.43152 20 9.43152ZM27.4062 13.1957C26.5775 13.6382 25.6053 13.9982 24.5404 14.2644C23.9188 12.3932 23.0029 10.9289 21.921 10.1235C24.0716 10.5407 25.9794 11.6431 27.4062 13.1957ZM20.252 15.3022C21.6311 15.2854 22.9746 15.1325 24.214 14.8588C24.6312 16.2932 24.8786 17.9572 24.9021 19.7346L20.2521 19.7356L20.252 15.3022ZM20.252 14.7969V9.95107C21.8374 10.117 23.2268 11.8336 24.0649 14.3762C22.8743 14.6349 21.5814 14.78 20.252 14.7969ZM19.7477 14.7969C18.4183 14.78 17.1264 14.6347 15.9348 14.375C16.7729 11.8334 18.1623 10.116 19.7477 9.95088V14.7969ZM19.7477 15.3022V19.7358H15.0977C15.1202 17.9583 15.3677 16.2942 15.7858 14.859C17.0242 15.1327 18.3677 15.2853 19.7477 15.3022ZM14.5925 19.7358H9.94342C10.0044 17.4032 10.8603 15.2648 12.2525 13.5858C13.1319 14.0686 14.1687 14.4604 15.3086 14.7473C14.8727 16.2229 14.6159 17.9226 14.5925 19.7358ZM14.5925 20.2411C14.6131 22.0626 14.8709 23.7708 15.3078 25.2549C14.1687 25.5418 13.1318 25.9327 12.2526 26.4165C10.8548 24.7318 9.9979 22.5839 9.94258 20.242L14.5925 20.2411ZM15.0978 20.2411H19.7478V24.6988C18.3687 24.7157 17.0252 24.8685 15.7859 25.1423C15.3659 23.7004 15.1184 22.0272 15.0978 20.2411ZM19.7478 25.2033V30.0501C18.1625 29.8842 16.773 28.1667 15.9349 25.625C17.1255 25.3653 18.4184 25.2202 19.7478 25.2033ZM20.2522 25.2033C21.5815 25.2202 22.8734 25.3646 24.065 25.6252C23.2269 28.1668 21.8376 29.8842 20.2522 30.0503V25.2033ZM20.2522 24.698V20.2412H24.9022C24.8815 22.0281 24.634 23.7006 24.214 25.1425C22.9756 24.8678 21.6322 24.7149 20.2522 24.698ZM25.4074 20.2412H30.0564C30.0011 22.5831 29.1442 24.7309 27.7464 26.4157C26.867 25.9329 25.8301 25.541 24.6912 25.2541C25.129 23.771 25.3858 22.0618 25.4074 20.2412ZM25.4074 19.7359C25.3839 17.9237 25.127 16.224 24.692 14.7465C25.8311 14.4596 26.868 14.0687 27.7472 13.585C29.1404 15.264 29.9954 17.4024 30.0563 19.735L25.4074 19.7359ZM18.079 10.1227C16.9971 10.928 16.0812 12.3924 15.4596 14.2636C14.3946 13.9974 13.4233 13.6383 12.5938 13.1949C14.0216 11.6433 15.9286 10.5408 18.079 10.1227ZM12.5938 26.8046C13.4225 26.3621 14.3947 26.0021 15.4596 25.7358C16.0812 27.6071 16.9971 29.0714 18.078 29.8768C15.9283 29.4596 14.0206 28.3571 12.5935 26.8046L12.5938 26.8046ZM21.9218 29.8768C23.0028 29.0715 23.9187 27.6072 24.5402 25.7359C25.6052 26.0021 26.5765 26.3612 27.4061 26.8037C25.9792 28.3571 24.0713 29.4595 21.9216 29.8769L21.9218 29.8768Z" stroke="#6E6E73" stroke-width="0.5"/>
<path d="M20 9.43152C14.1726 9.43152 9.43164 14.1725 9.43164 19.9999C9.43164 25.8274 14.1726 30.5683 20 30.5683C25.8275 30.5683 30.5684 25.8274 30.5684 19.9999C30.5684 14.1725 25.8275 9.43152 20 9.43152ZM27.4062 13.1957C26.5775 13.6382 25.6053 13.9982 24.5404 14.2644C23.9188 12.3932 23.0029 10.9289 21.921 10.1235C24.0716 10.5407 25.9794 11.6431 27.4062 13.1957ZM20.252 15.3022C21.6311 15.2854 22.9746 15.1325 24.214 14.8588C24.6312 16.2932 24.8786 17.9572 24.9021 19.7346L20.2521 19.7356L20.252 15.3022ZM20.252 14.7969V9.95107C21.8374 10.117 23.2268 11.8336 24.0649 14.3762C22.8743 14.6349 21.5814 14.78 20.252 14.7969ZM19.7477 14.7969C18.4183 14.78 17.1264 14.6347 15.9348 14.375C16.7729 11.8334 18.1623 10.116 19.7477 9.95088V14.7969ZM19.7477 15.3022V19.7358H15.0977C15.1202 17.9583 15.3677 16.2942 15.7858 14.859C17.0242 15.1327 18.3677 15.2853 19.7477 15.3022ZM14.5925 19.7358H9.94342C10.0044 17.4032 10.8603 15.2648 12.2525 13.5858C13.1319 14.0686 14.1687 14.4604 15.3086 14.7473C14.8727 16.2229 14.6159 17.9226 14.5925 19.7358ZM14.5925 20.2411C14.6131 22.0626 14.8709 23.7708 15.3078 25.2549C14.1687 25.5418 13.1318 25.9327 12.2526 26.4165C10.8548 24.7318 9.9979 22.5839 9.94258 20.242L14.5925 20.2411ZM15.0978 20.2411H19.7478V24.6988C18.3687 24.7157 17.0252 24.8685 15.7859 25.1423C15.3659 23.7004 15.1184 22.0272 15.0978 20.2411ZM19.7478 25.2033V30.0501C18.1625 29.8842 16.773 28.1667 15.9349 25.625C17.1255 25.3653 18.4184 25.2202 19.7478 25.2033ZM20.2522 25.2033C21.5815 25.2202 22.8734 25.3646 24.065 25.6252C23.2269 28.1668 21.8376 29.8842 20.2522 30.0503V25.2033ZM20.2522 24.698V20.2412H24.9022C24.8815 22.0281 24.634 23.7006 24.214 25.1425C22.9756 24.8678 21.6322 24.7149 20.2522 24.698ZM25.4074 20.2412H30.0564C30.0011 22.5831 29.1442 24.7309 27.7464 26.4157C26.867 25.9329 25.8301 25.541 24.6912 25.2541C25.129 23.771 25.3858 22.0618 25.4074 20.2412ZM25.4074 19.7359C25.3839 17.9237 25.127 16.224 24.692 14.7465C25.8311 14.4596 26.868 14.0687 27.7472 13.585C29.1404 15.264 29.9954 17.4024 30.0563 19.735L25.4074 19.7359ZM18.079 10.1227C16.9971 10.928 16.0812 12.3924 15.4596 14.2636C14.3946 13.9974 13.4233 13.6383 12.5938 13.1949C14.0216 11.6433 15.9286 10.5408 18.079 10.1227ZM12.5938 26.8046C13.4225 26.3621 14.3947 26.0021 15.4596 25.7358C16.0812 27.6071 16.9971 29.0714 18.078 29.8768C15.9283 29.4596 14.0206 28.3571 12.5935 26.8046L12.5938 26.8046ZM21.9218 29.8768C23.0028 29.0715 23.9187 27.6072 24.5402 25.7359C25.6052 26.0021 26.5765 26.3612 27.4061 26.8037C25.9792 28.3571 24.0713 29.4595 21.9216 29.8769L21.9218 29.8768Z" stroke="black" stroke-opacity="0.2" stroke-width="0.5"/>
<path d="M20 9.43152C14.1726 9.43152 9.43164 14.1725 9.43164 19.9999C9.43164 25.8274 14.1726 30.5683 20 30.5683C25.8275 30.5683 30.5684 25.8274 30.5684 19.9999C30.5684 14.1725 25.8275 9.43152 20 9.43152ZM27.4062 13.1957C26.5775 13.6382 25.6053 13.9982 24.5404 14.2644C23.9188 12.3932 23.0029 10.9289 21.921 10.1235C24.0716 10.5407 25.9794 11.6431 27.4062 13.1957ZM20.252 15.3022C21.6311 15.2854 22.9746 15.1325 24.214 14.8588C24.6312 16.2932 24.8786 17.9572 24.9021 19.7346L20.2521 19.7356L20.252 15.3022ZM20.252 14.7969V9.95107C21.8374 10.117 23.2268 11.8336 24.0649 14.3762C22.8743 14.6349 21.5814 14.78 20.252 14.7969ZM19.7477 14.7969C18.4183 14.78 17.1264 14.6347 15.9348 14.375C16.7729 11.8334 18.1623 10.116 19.7477 9.95088V14.7969ZM19.7477 15.3022V19.7358H15.0977C15.1202 17.9583 15.3677 16.2942 15.7858 14.859C17.0242 15.1327 18.3677 15.2853 19.7477 15.3022ZM14.5925 19.7358H9.94342C10.0044 17.4032 10.8603 15.2648 12.2525 13.5858C13.1319 14.0686 14.1687 14.4604 15.3086 14.7473C14.8727 16.2229 14.6159 17.9226 14.5925 19.7358ZM14.5925 20.2411C14.6131 22.0626 14.8709 23.7708 15.3078 25.2549C14.1687 25.5418 13.1318 25.9327 12.2526 26.4165C10.8548 24.7318 9.9979 22.5839 9.94258 20.242L14.5925 20.2411ZM15.0978 20.2411H19.7478V24.6988C18.3687 24.7157 17.0252 24.8685 15.7859 25.1423C15.3659 23.7004 15.1184 22.0272 15.0978 20.2411ZM19.7478 25.2033V30.0501C18.1625 29.8842 16.773 28.1667 15.9349 25.625C17.1255 25.3653 18.4184 25.2202 19.7478 25.2033ZM20.2522 25.2033C21.5815 25.2202 22.8734 25.3646 24.065 25.6252C23.2269 28.1668 21.8376 29.8842 20.2522 30.0503V25.2033ZM20.2522 24.698V20.2412H24.9022C24.8815 22.0281 24.634 23.7006 24.214 25.1425C22.9756 24.8678 21.6322 24.7149 20.2522 24.698ZM25.4074 20.2412H30.0564C30.0011 22.5831 29.1442 24.7309 27.7464 26.4157C26.867 25.9329 25.8301 25.541 24.6912 25.2541C25.129 23.771 25.3858 22.0618 25.4074 20.2412ZM25.4074 19.7359C25.3839 17.9237 25.127 16.224 24.692 14.7465C25.8311 14.4596 26.868 14.0687 27.7472 13.585C29.1404 15.264 29.9954 17.4024 30.0563 19.735L25.4074 19.7359ZM18.079 10.1227C16.9971 10.928 16.0812 12.3924 15.4596 14.2636C14.3946 13.9974 13.4233 13.6383 12.5938 13.1949C14.0216 11.6433 15.9286 10.5408 18.079 10.1227ZM12.5938 26.8046C13.4225 26.3621 14.3947 26.0021 15.4596 25.7358C16.0812 27.6071 16.9971 29.0714 18.078 29.8768C15.9283 29.4596 14.0206 28.3571 12.5935 26.8046L12.5938 26.8046ZM21.9218 29.8768C23.0028 29.0715 23.9187 27.6072 24.5402 25.7359C25.6052 26.0021 26.5765 26.3612 27.4061 26.8037C25.9792 28.3571 24.0713 29.4595 21.9216 29.8769L21.9218 29.8768Z" stroke="black" stroke-opacity="0.2" stroke-width="0.5"/>
<path d="M20 9.43152C14.1726 9.43152 9.43164 14.1725 9.43164 19.9999C9.43164 25.8274 14.1726 30.5683 20 30.5683C25.8275 30.5683 30.5684 25.8274 30.5684 19.9999C30.5684 14.1725 25.8275 9.43152 20 9.43152ZM27.4062 13.1957C26.5775 13.6382 25.6053 13.9982 24.5404 14.2644C23.9188 12.3932 23.0029 10.9289 21.921 10.1235C24.0716 10.5407 25.9794 11.6431 27.4062 13.1957ZM20.252 15.3022C21.6311 15.2854 22.9746 15.1325 24.214 14.8588C24.6312 16.2932 24.8786 17.9572 24.9021 19.7346L20.2521 19.7356L20.252 15.3022ZM20.252 14.7969V9.95107C21.8374 10.117 23.2268 11.8336 24.0649 14.3762C22.8743 14.6349 21.5814 14.78 20.252 14.7969ZM19.7477 14.7969C18.4183 14.78 17.1264 14.6347 15.9348 14.375C16.7729 11.8334 18.1623 10.116 19.7477 9.95088V14.7969ZM19.7477 15.3022V19.7358H15.0977C15.1202 17.9583 15.3677 16.2942 15.7858 14.859C17.0242 15.1327 18.3677 15.2853 19.7477 15.3022ZM14.5925 19.7358H9.94342C10.0044 17.4032 10.8603 15.2648 12.2525 13.5858C13.1319 14.0686 14.1687 14.4604 15.3086 14.7473C14.8727 16.2229 14.6159 17.9226 14.5925 19.7358ZM14.5925 20.2411C14.6131 22.0626 14.8709 23.7708 15.3078 25.2549C14.1687 25.5418 13.1318 25.9327 12.2526 26.4165C10.8548 24.7318 9.9979 22.5839 9.94258 20.242L14.5925 20.2411ZM15.0978 20.2411H19.7478V24.6988C18.3687 24.7157 17.0252 24.8685 15.7859 25.1423C15.3659 23.7004 15.1184 22.0272 15.0978 20.2411ZM19.7478 25.2033V30.0501C18.1625 29.8842 16.773 28.1667 15.9349 25.625C17.1255 25.3653 18.4184 25.2202 19.7478 25.2033ZM20.2522 25.2033C21.5815 25.2202 22.8734 25.3646 24.065 25.6252C23.2269 28.1668 21.8376 29.8842 20.2522 30.0503V25.2033ZM20.2522 24.698V20.2412H24.9022C24.8815 22.0281 24.634 23.7006 24.214 25.1425C22.9756 24.8678 21.6322 24.7149 20.2522 24.698ZM25.4074 20.2412H30.0564C30.0011 22.5831 29.1442 24.7309 27.7464 26.4157C26.867 25.9329 25.8301 25.541 24.6912 25.2541C25.129 23.771 25.3858 22.0618 25.4074 20.2412ZM25.4074 19.7359C25.3839 17.9237 25.127 16.224 24.692 14.7465C25.8311 14.4596 26.868 14.0687 27.7472 13.585C29.1404 15.264 29.9954 17.4024 30.0563 19.735L25.4074 19.7359ZM18.079 10.1227C16.9971 10.928 16.0812 12.3924 15.4596 14.2636C14.3946 13.9974 13.4233 13.6383 12.5938 13.1949C14.0216 11.6433 15.9286 10.5408 18.079 10.1227ZM12.5938 26.8046C13.4225 26.3621 14.3947 26.0021 15.4596 25.7358C16.0812 27.6071 16.9971 29.0714 18.078 29.8768C15.9283 29.4596 14.0206 28.3571 12.5935 26.8046L12.5938 26.8046ZM21.9218 29.8768C23.0028 29.0715 23.9187 27.6072 24.5402 25.7359C25.6052 26.0021 26.5765 26.3612 27.4061 26.8037C25.9792 28.3571 24.0713 29.4595 21.9216 29.8769L21.9218 29.8768Z" stroke="black" stroke-opacity="0.2" stroke-width="0.5"/>
<rect x="0.5" y="0.5" width="39" height="39" rx="19.5" stroke="#F4F6FC"/>
</svg>
